<?xml version="1.0" encoding="utf-8"?>
<!-- Generator: Adobe Illustrator 15.0.0, SVG Export Plug-In . SVG Version: 6.00 Build 0)  -->
<!DOCTYPE svg PUBLIC "-//W3C//DTD SVG 1.1//EN" "http://www.w3.org/Graphics/SVG/1.1/DTD/svg11.dtd">
<svg version="1.1" id="Layer_1" xmlns:sketch="http://www.bohemiancoding.com/sketch/ns"
	 xmlns="http://www.w3.org/2000/svg" xmlns:xlink="http://www.w3.org/1999/xlink" x="0px" y="0px" width="512px" height="512px"
	 viewBox="0 0 512 512" enable-background="new 0 0 512 512" xml:space="preserve">
<title>plus</title>
<desc>Created with Sketch.</desc>
<g id="Page-1" sketch:type="MSPage">
	<g id="plus" sketch:type="MSArtboardGroup">
		<path id="_x2B_" sketch:type="MSShapeGroup" fill="#FFFFFF" d="M20.848,211.774c10.082-9.895,22.592-15.683,37.529-17.363
			c14.937-1.68,29.966-2.241,45.09-1.68c15.124,0.56,29.221,0.373,42.291-0.561s21.659-4.014,25.766-9.241
			c2.613-3.734,5.134-15.777,7.562-36.128c2.427-20.352,5.041-40.517,7.841-60.494c2.801-19.978,10.456-38.275,22.966-54.894
			c12.509-16.617,29.22-24.739,50.133-24.365c14.938,0.373,26.978,3.547,36.125,9.522c9.15,5.974,15.499,14.842,19.048,26.606
			c3.546,11.762,5.88,23.152,6.999,34.167c1.121,11.016,1.96,25.206,2.521,42.57c0.561,17.364,1.589,31.087,3.08,41.169
			c3.362,20.538,26.327,30.807,68.896,30.807c41.076,0.374,69.83,5.322,86.261,14.844c16.43,9.522,24.646,24.178,24.646,43.97
			c0,8.215-0.934,15.872-2.801,22.966s-4.107,13.162-6.721,18.204c-2.614,5.039-6.441,9.707-11.483,14.003
			c-5.041,4.294-9.616,7.84-13.722,10.641c-4.108,2.801-9.71,5.229-16.807,7.283c-7.095,2.053-13.069,3.733-17.923,5.041
			s-11.577,2.427-20.164,3.36c-8.591,0.934-15.218,1.496-19.886,1.682s-11.67,0.56-21.005,1.119
			c-9.336,0.562-15.87,1.026-19.604,1.402c-10.455,0-18.109,5.974-22.965,17.924s-8.121,26.231-9.803,42.85
			c-1.681,16.616-4.013,33.234-7.001,49.85c-2.989,16.618-9.803,30.529-20.445,41.731s-25.673,16.242-45.09,15.122
			c-8.963-1.119-16.898-4.198-23.805-9.242c-6.909-5.039-12.51-12.043-16.804-21.003c-4.295-8.964-7.842-17.458-10.643-25.486
			c-2.801-8.028-4.948-18.39-6.441-31.088c-1.495-12.696-2.521-22.312-3.082-28.848c-0.56-6.534-1.027-15.4-1.4-26.604
			c-0.747-10.831-7.654-18.859-20.724-24.086c-13.071-5.23-28.66-8.871-46.771-10.925c-18.111-2.053-36.128-4.76-54.053-8.12
			s-33.047-10.177-45.37-20.445c-12.323-10.27-18.298-24.554-17.924-42.851C5.539,236.141,10.766,221.671,20.848,211.774z"/>
	</g>
</g>
</svg>
