<svg xmlns="http://www.w3.org/2000/svg" viewBox="0 0 131.911 131.261"><path fill="#9758A3" d="M118.398 52.224c.005-.075.02-.196.033-.325.06-.5.08-.77.07-.97l-.75-24.76c6.2-.42 9.96-2.95 10.18-6.96.04-.69-.23-1.36-.73-1.83s-1.18-.7-1.86-.62l-10.42 1.19c-1.21.13-2.11 1.18-2.07 2.39l.79 24.43c-1.08-.5-2.26-.92-3.51-1.19-.98-.21-1.93-.29-2.83-.29-4.71 0-7.86 2.88-8.24 7.45-.19 2.28.5 4.43 1.97 6.06 1.73 1.9 4.42 3.22 7.4 3.22h.21c5.3 0 8.96-3.53 9.68-6.97.07-.217.11-.603.11-.846z" class="note animate"/><path fill="#AA7DB7" d="M113.152 2.14c.055-.55-.126-1.097-.498-1.504-.372-.407-.895-.665-1.45-.633l-8.658.076c-.528 0-1.032.22-1.394.6-.363.38-.553.89-.528 1.42l.97 20.29c-.9-.41-1.894-.76-2.932-.97-.763-.15-1.506-.25-2.208-.25-3.943 0-6.656 2.41-6.91 6.22-.128 1.9.465 4.27 1.715 5.61 1.45 1.56 3.71 3.01 6.18 3.01 4.5 0 7.56-3.44 8.12-6.37.05-.18.08-.556.08-.756 0-.066.01-.355.02-.46.03-.41.05-.73.04-.9l-.92-20.44c6.85-.038 8.18-3.144 8.36-4.97zM97.507 32.98v.003-.003z" class="note animate"/><g class="shoe animate"><path fill="#D2D3D4" d="M2.493 71.232S4.94 45.53 26.156 28.802c0 0 3.672-2.855 7.344 0S30.724 51.737 63.368 53.22c0 0 1.187-25.67 13.355-22.85 12.54 2.904 4.102 23.115 4.102 23.115s29.782 35.448 43.857 47.098 3.26 21.856 3.26 21.856-16.2 14.17-46.3-1.85C58.61 108.34 2.49 71.23 2.49 71.23z"/><path fill="#9758A3" d="M8.747 50.79s42.75 22.314 41.405 48.405l39.035 21.688s9.793-29.677-75.79-78.223l-4.65 8.13zm28.31-21.838l-.007.086-.008.06c-.002.04-.005.09-.01.146-.01.228-.022.593-.003 1.076.02.96.16 2.39.59 4.047.2.834.51 1.708.88 2.617.37.91.86 1.82 1.42 2.737.59.9 1.25 1.8 2.04 2.63.38.43.81.82 1.23 1.22.45.37.87.79 1.37 1.12l.72.53c.24.18.5.33.75.49.25.16.5.33.76.48l.79.43c.52.3 1.06.54 1.61.79.53.26 1.08.47 1.63.67l.81.31.82.254c.54.157 1.06.355 1.59.468l1.54.38c.5.118.99.19 1.46.286.94.196 1.81.305 2.59.406.39.05.75.1 1.09.14l.93.08 1.774.15.08.01c.876.073 1.53.843 1.454 1.72-.07.825-.76 1.45-1.57 1.46l-1.88.017-.997.01c-.364-.012-.756-.03-1.175-.043-.838-.03-1.786-.066-2.82-.18-.517-.056-1.058-.088-1.616-.167l-1.73-.26c-.595-.07-1.2-.234-1.82-.355l-.94-.2-.956-.26c-.64-.172-1.3-.35-1.946-.593-.657-.22-1.32-.445-1.97-.74l-.99-.42c-.328-.15-.648-.32-.974-.48-.32-.166-.653-.32-.97-.503l-.95-.56c-.644-.36-1.23-.82-1.845-1.24-.588-.456-1.18-.908-1.72-1.406-1.116-.973-2.1-2.07-2.988-3.18-.86-1.13-1.62-2.29-2.23-3.443-.61-1.16-1.12-2.29-1.5-3.364-.77-2.15-1.14-4.03-1.31-5.384-.09-.673-.126-1.223-.146-1.62l-.01-.263c-.002-.097.118-.177.117-.24 0-.106.12-.16.12-.16v-.01c0-1.97 1.46-3.57 3.43-3.58 1.97-.01 3.51 1.58 3.52 3.55 0 .114-.065.232-.074.342zm44.713 22.09s2.372-6.38 1.827-12.44c0 0-9.248-1.565-9.248 6.752 0 4.65 2.89 3.688 6.47 5.688h.94zm.592 25.65c-.66 0-1.315-.273-1.785-.807-.865-.985-.77-2.485.217-3.35l9.857-8.66c.99-.865 2.49-.77 3.35.217.87.985.77 2.485-.21 3.35l-9.85 8.66c-.45.395-1.01.59-1.56.59zm-7.122-8.31c-.66 0-1.315-.272-1.785-.806-.865-.985-.77-2.485.217-3.35l9.857-8.66c.98-.865 2.48-.77 3.35.217.86.985.76 2.485-.22 3.35l-9.86 8.66c-.45.395-1.01.59-1.57.59zM89.485 85c-.66 0-1.315-.272-1.785-.806-.865-.985-.77-2.485.217-3.35l10.01-8.795c.986-.87 2.486-.77 3.35.21.866.98.77 2.48-.216 3.35l-10.01 8.8c-.45.39-1.01.59-1.56.59zm8.31 8.31c-.66 0-1.316-.272-1.786-.806-.87-.985-.77-2.485.21-3.35l9.06-7.96c.98-.865 2.48-.766 3.35.218.86.985.77 2.485-.22 3.35l-9.06 7.96c-.45.394-1.01.59-1.57.59zm8.31 8.31c-.66 0-1.316-.273-1.786-.807-.87-.985-.77-2.485.21-3.35l9.06-7.96c.98-.865 2.48-.766 3.35.218.86.99.77 2.49-.22 3.35l-9.06 7.96c-.45.4-1.01.59-1.57.59zM7.485 67.27l4.72 3.292 12.522 8.59c2.592 1.776 5.42 3.67 8.41 5.676l9.417 6.283c3.273 2.17 6.654 4.42 10.11 6.66 3.456 2.25 6.98 4.5 10.508 6.75 3.535 2.23 7.073 4.46 10.578 6.6 1.75 1.09 3.498 2.12 5.22 3.15 1.72 1.05 3.44 2.01 5.124 2.97l1.26.72c.323.18.778.41 1.178.6.827.41 1.665.79 2.5 1.16 1.67.74 3.333 1.41 4.97 2 3.28 1.17 6.437 2.11 9.387 2.7 2.94.62 5.66.94 8.05 1.05 2.39.13 4.45-.03 6.1-.25.83-.09 1.55-.26 2.18-.37.62-.153 1.15-.28 1.57-.4l1.27-.408.17-.06c1.59-.51 3.3.37 3.81 1.966.51 1.596-.37 3.304-1.97 3.816l-.11.037-1.62.45c-.53.13-1.187.256-1.95.43-.77.12-1.66.3-2.65.39-1.99.23-4.4.3-7.11.17-2.72-.145-5.74-.524-8.95-1.216-3.21-.685-6.628-1.62-10.14-2.85-1.76-.61-3.55-1.29-5.36-2.04-.91-.38-1.818-.78-2.73-1.207-.47-.22-.89-.42-1.43-.695l-1.32-.697c-1.76-.937-3.564-1.876-5.335-2.878-1.78-.992-3.6-1.985-5.39-3.026-3.61-2.052-7.24-4.186-10.87-6.322-3.62-2.15-7.23-4.3-10.77-6.45l-10.4-6.29c-6.737-4.09-12.98-7.97-18.35-11.27l-17.84-11.1c-2.23-1.38-2.92-4.31-1.54-6.54 1.38-2.23 4.31-2.92 6.54-1.54.07.043.138.09.204.134l.03.02zm12.774-3.69l14.76 11.35c.94.725 1.12 2.077.39 3.02-.68.89-1.94 1.093-2.87.503l-15.7-10.015c-1.39-.882-1.79-2.72-.91-4.102.88-1.383 2.72-1.79 4.1-.907.07.04.14.09.21.15z"/></g></svg>